<?xml version="1.0" standalone="no"?>
<!DOCTYPE svg PUBLIC "-//W3C//DTD SVG 20010904//EN"
 "http://www.w3.org/TR/2001/REC-SVG-20010904/DTD/svg10.dtd">
<svg version="1.0" xmlns="http://www.w3.org/2000/svg"
 width="828.000000pt" height="810.000000pt" viewBox="0 0 828.000000 810.000000"
 preserveAspectRatio="xMidYMid meet">
<metadata>
Created by potrace 1.16, written by Peter Selinger 2001-2019
</metadata>
<g transform="translate(0.000000,810.000000) scale(0.100000,-0.100000)"
fill="#000000" stroke="none">
<path d="M4225 7561 c-11 -4 -76 -8 -145 -10 -69 -1 -154 -9 -190 -17 -36 -8
-87 -20 -115 -26 -27 -5 -69 -15 -92 -20 -23 -6 -77 -12 -120 -13 -43 -2 -100
-9 -128 -15 -27 -6 -64 -14 -82 -17 -18 -3 -38 -11 -44 -19 -6 -8 -27 -14 -46
-14 -19 0 -55 -8 -81 -19 -26 -10 -60 -22 -77 -28 -27 -8 -30 -13 -28 -49 2
-21 10 -44 18 -50 8 -6 15 -17 15 -24 0 -6 9 -24 19 -39 11 -15 23 -39 26 -54
4 -15 11 -30 16 -33 5 -3 9 -14 9 -25 0 -25 33 -25 85 0 37 18 94 39 170 61
17 5 48 15 70 24 22 8 54 15 72 16 17 0 58 7 90 15 32 8 105 19 163 25 286 29
294 29 390 15 52 -7 133 -16 180 -19 167 -13 402 -74 548 -142 40 -19 57 -23
67 -14 13 11 65 110 65 124 0 4 11 22 25 40 14 18 25 40 25 49 0 9 5 19 10 22
17 11 11 55 -7 61 -10 3 -35 14 -55 24 -20 11 -48 20 -60 20 -13 0 -29 5 -36
12 -14 14 -157 57 -192 58 -14 0 -49 9 -78 20 -29 11 -65 20 -81 20 -17 0 -42
5 -58 11 -15 6 -89 15 -164 20 -74 4 -142 10 -150 13 -8 3 -23 1 -34 -3z"/>
<path d="M5183 7303 c-24 -36 -73 -164 -67 -174 2 -4 19 -15 37 -25 17 -9 44
-23 60 -31 15 -8 27 -19 27 -24 0 -5 8 -9 17 -9 17 0 95 -48 101 -62 2 -5 8
-8 13 -8 6 0 34 -18 64 -40 30 -22 57 -40 61 -40 4 0 25 -16 48 -36 22 -20 58
-50 79 -67 22 -18 60 -53 85 -79 25 -27 52 -48 59 -48 35 0 153 106 153 137 0
11 -11 29 -25 39 -14 10 -25 24 -25 29 0 6 -15 22 -32 35 -18 13 -44 34 -58
47 -14 12 -43 38 -65 58 -21 19 -44 35 -51 35 -6 0 -25 16 -41 35 -17 19 -35
35 -41 35 -6 0 -17 6 -24 13 -22 21 -86 67 -93 67 -4 0 -30 16 -59 35 -29 19
-59 35 -65 35 -7 0 -24 9 -38 20 -14 11 -31 20 -38 20 -7 0 -18 7 -25 15 -18
22 -37 18 -57 -12z"/>
<path d="M2965 7307 c-11 -6 -32 -19 -47 -29 -15 -10 -35 -18 -44 -18 -10 0
-25 -6 -33 -14 -9 -8 -41 -26 -71 -42 -30 -16 -68 -41 -85 -56 -16 -15 -35
-28 -42 -28 -7 0 -26 -12 -42 -27 -43 -40 -59 -53 -66 -53 -4 0 -13 -6 -21
-12 -7 -7 -63 -56 -123 -108 -70 -60 -110 -102 -110 -115 -1 -21 20 -44 58
-65 12 -6 21 -16 21 -24 0 -7 18 -23 41 -35 l40 -23 27 23 c15 13 40 36 57 51
16 14 52 47 79 72 27 25 56 46 63 46 7 0 13 7 13 15 0 9 12 21 28 27 15 7 43
24 62 39 19 14 61 41 93 59 31 17 57 36 57 41 0 5 7 9 16 9 9 0 28 8 42 18 55
35 68 43 95 53 34 14 34 33 2 101 -55 115 -64 122 -110 95z"/>
<path d="M3620 7155 c-36 -9 -48 -19 -65 -49 -20 -38 -41 -54 -102 -76 -42
-16 -42 -32 2 -53 20 -9 39 -27 44 -40 5 -12 16 -29 25 -36 27 -23 19 -72 -18
-114 -33 -36 -38 -68 -15 -83 5 -3 9 -12 9 -19 0 -15 17 -39 58 -81 12 -13 22
-28 22 -34 0 -5 3 -10 8 -10 4 0 30 -21 57 -46 28 -25 68 -55 90 -66 22 -11
51 -29 64 -39 13 -11 33 -19 45 -19 11 -1 32 -7 45 -14 50 -28 51 -22 51 234
0 277 3 269 -87 251 -91 -18 -116 -15 -146 19 -31 35 -36 89 -13 145 18 42 32
48 161 72 l100 18 -116 3 c-112 3 -116 4 -129 27 -15 27 -23 28 -90 10z"/>
<path d="M4506 7141 c-17 -18 -31 -21 -113 -21 -54 0 -92 -4 -89 -9 4 -5 39
-15 79 -21 99 -16 114 -24 132 -66 21 -51 19 -92 -7 -131 -29 -43 -54 -49
-140 -33 -54 9 -72 9 -83 0 -12 -10 -15 -54 -15 -256 l0 -244 29 0 c16 0 42 6
58 14 195 96 189 92 236 139 21 20 43 37 48 37 5 0 9 6 9 13 0 7 15 28 33 46
40 38 81 116 73 137 -3 8 -18 19 -32 25 -57 21 -69 75 -34 144 20 39 68 74
104 75 16 0 14 4 -10 23 -15 12 -44 27 -64 32 -27 8 -39 19 -55 52 -21 46 -26
49 -95 58 -38 6 -48 3 -64 -14z"/>
<path d="M3070 7055 c-7 -8 -23 -15 -35 -15 -12 0 -28 -7 -35 -15 -7 -9 -38
-28 -69 -43 -31 -15 -76 -42 -100 -60 -24 -18 -49 -32 -55 -32 -6 0 -17 -9
-24 -20 -7 -11 -19 -20 -26 -20 -8 0 -16 -3 -18 -7 -1 -5 -43 -44 -93 -88 -90
-80 -135 -125 -135 -136 0 -8 101 -99 111 -99 5 0 9 -6 9 -14 0 -8 12 -24 28
-35 38 -30 150 -132 243 -223 43 -43 83 -78 89 -78 5 0 21 -16 36 -35 14 -19
32 -35 39 -35 7 0 24 -15 39 -34 14 -19 34 -37 44 -40 11 -4 25 -19 32 -34 8
-15 29 -43 47 -62 29 -32 56 -92 100 -219 11 -34 14 -75 10 -175 -4 -125 -6
-135 -45 -231 -24 -60 -57 -119 -81 -149 -23 -26 -41 -52 -41 -57 0 -5 -5 -9
-10 -9 -6 0 -27 -15 -46 -33 -34 -30 -69 -52 -124 -77 -14 -6 -32 -17 -40 -24
-8 -7 -37 -18 -65 -25 -27 -7 -66 -16 -85 -21 -19 -5 -67 -12 -106 -15 -39 -3
-95 -12 -125 -20 -30 -8 -85 -15 -124 -15 -38 0 -104 -5 -145 -11 -41 -5 -111
-14 -155 -20 -44 -5 -116 -16 -160 -22 l-80 -13 4 -79 c2 -47 13 -111 27 -155
13 -41 24 -82 24 -90 0 -9 7 -25 15 -36 8 -10 15 -31 15 -47 0 -15 18 -63 40
-107 22 -44 40 -90 40 -104 0 -13 7 -29 15 -36 9 -7 22 -28 31 -46 24 -50 47
-52 110 -10 29 20 58 36 63 36 16 0 108 49 121 65 7 8 18 15 25 15 19 0 115
50 115 59 0 5 14 11 30 15 17 3 50 18 73 34 23 16 67 41 97 56 30 16 62 34 70
41 8 7 26 16 39 20 14 4 39 16 55 26 75 46 164 69 291 76 111 6 275 -24 309
-56 12 -12 28 -21 34 -21 22 0 123 -72 160 -114 10 -10 26 -28 37 -40 31 -33
85 -113 85 -125 0 -6 14 -41 30 -78 29 -64 30 -71 31 -219 0 -85 -4 -160 -10
-170 -11 -21 -30 -119 -56 -289 -9 -60 -23 -132 -31 -160 -7 -27 -21 -88 -29
-135 -9 -47 -20 -104 -26 -127 -13 -59 -11 -89 6 -103 12 -10 107 -14 389 -16
323 -3 375 -2 386 11 18 22 -1 175 -30 240 -5 11 -11 43 -14 70 -3 28 -10 75
-16 105 -6 30 -15 78 -19 105 -4 28 -15 79 -24 115 -37 148 -42 190 -42 345 0
166 9 222 47 277 10 14 18 33 18 42 0 9 4 16 8 16 5 0 14 16 22 35 7 19 21 37
29 40 9 3 26 21 39 40 12 19 27 35 34 35 6 0 28 17 49 38 52 50 66 62 78 62 6
0 27 11 47 25 22 15 51 25 73 25 20 1 63 7 96 15 78 19 166 19 238 0 32 -8 70
-15 85 -15 15 0 52 -15 83 -34 31 -19 67 -37 80 -41 13 -4 35 -16 48 -26 13
-11 30 -19 38 -19 7 0 16 -7 19 -15 4 -8 15 -15 27 -15 11 0 30 -8 41 -19 12
-10 41 -28 66 -41 25 -12 52 -26 60 -31 107 -59 261 -139 269 -139 5 0 11 -4
13 -8 5 -13 106 -62 128 -62 11 0 23 8 26 18 9 26 22 53 54 107 16 28 29 59
30 71 0 11 8 29 19 38 10 9 21 34 25 54 3 20 13 50 21 66 8 15 15 41 15 56 0
15 7 47 16 71 17 45 53 239 47 251 -1 3 -31 9 -65 13 -35 4 -79 10 -98 15 -56
14 -356 50 -418 50 -31 0 -75 5 -97 11 -22 5 -83 16 -135 24 -154 24 -183 30
-215 48 -16 8 -47 23 -67 32 -21 10 -38 21 -38 26 0 5 -8 9 -18 9 -10 0 -28
13 -40 29 -12 17 -34 36 -49 43 -15 7 -34 25 -41 40 -7 15 -21 30 -32 33 -11
4 -20 12 -20 19 0 7 -18 48 -40 91 -55 109 -85 285 -61 370 7 27 7 42 0 51
-11 13 -9 19 36 104 10 19 32 61 48 94 16 32 36 60 46 63 9 2 23 19 32 36 9
18 25 37 37 43 24 12 62 52 62 66 0 4 8 8 18 8 9 0 28 16 42 35 14 19 28 35
32 35 4 0 42 34 84 75 42 41 79 75 83 75 3 0 22 15 41 34 83 82 120 116 128
116 4 0 16 14 27 31 11 17 32 37 47 45 38 20 60 56 53 85 -3 13 -24 37 -46 53
-21 17 -39 36 -39 43 0 7 -6 13 -14 13 -7 0 -34 20 -59 45 -26 25 -51 45 -56
45 -5 0 -23 13 -40 29 -18 17 -41 33 -52 36 -10 4 -19 11 -19 16 0 5 -7 9 -15
9 -8 0 -15 4 -15 8 0 5 -19 18 -42 31 -54 28 -79 43 -96 59 -8 7 -27 16 -43
19 -16 3 -34 12 -40 19 -6 8 -23 14 -38 14 -22 0 -30 -8 -46 -45 -10 -25 -27
-55 -37 -67 -10 -12 -18 -27 -18 -33 0 -17 -39 -103 -49 -110 -5 -3 -17 -27
-26 -53 -23 -65 -36 -92 -58 -124 -10 -15 -28 -56 -41 -92 -12 -35 -27 -70
-33 -78 -18 -23 -63 -117 -63 -133 0 -8 -4 -15 -8 -15 -5 0 -19 -23 -31 -51
-13 -28 -45 -74 -72 -101 -27 -28 -49 -54 -49 -59 0 -5 -8 -9 -18 -9 -9 0 -22
-8 -29 -19 -6 -10 -33 -29 -60 -42 -26 -13 -54 -29 -61 -36 -7 -7 -20 -13 -27
-13 -8 0 -29 -9 -47 -19 -76 -44 -390 -43 -447 1 -13 10 -31 18 -41 18 -9 0
-25 9 -35 20 -10 11 -27 20 -37 20 -11 0 -25 6 -33 13 -7 6 -25 21 -39 31 -36
26 -136 122 -136 131 0 3 -13 25 -28 48 -15 23 -32 53 -38 67 -18 40 -53 114
-63 130 -5 8 -20 42 -32 75 -13 33 -31 69 -41 79 -10 11 -18 28 -18 37 0 10
-4 20 -9 24 -5 3 -13 20 -17 38 -3 17 -17 45 -30 60 -13 16 -24 34 -24 42 0
13 -39 103 -64 145 -20 35 -46 96 -46 109 0 17 -66 13 -80 -4z m1200 -1239
c47 -9 117 -32 157 -51 40 -19 78 -35 85 -35 17 0 238 -227 238 -244 0 -3 12
-27 28 -53 75 -131 100 -342 62 -523 -16 -72 -26 -98 -73 -179 -11 -20 -25
-45 -31 -56 -16 -28 -52 -68 -115 -128 -101 -98 -127 -117 -157 -117 -10 0
-40 -11 -68 -24 -102 -47 -117 -50 -284 -54 -132 -2 -169 0 -194 13 -17 8 -38
15 -47 15 -9 0 -29 8 -46 18 -16 10 -50 26 -75 35 -25 9 -57 28 -72 42 -15 14
-32 25 -38 25 -16 0 -160 149 -160 166 0 8 -13 28 -30 46 -16 17 -30 39 -30
48 0 9 -3 19 -6 23 -8 8 -51 129 -65 182 -17 65 -6 252 18 305 11 25 24 60 28
79 7 35 36 94 60 121 7 8 20 30 29 47 9 18 34 50 56 72 22 22 40 44 40 50 0 6
5 11 11 11 6 0 29 15 52 34 63 51 201 115 271 126 33 6 79 14 101 19 51 12
148 7 255 -13z"/>
<path d="M3910 5708 c-36 -11 -78 -26 -95 -33 -16 -8 -47 -21 -67 -29 -21 -8
-38 -22 -38 -30 0 -8 -10 -21 -22 -27 -33 -18 -120 -110 -146 -155 -61 -108
-74 -151 -93 -304 -10 -80 -8 -92 20 -204 17 -66 37 -126 45 -135 7 -9 21 -30
29 -47 18 -34 150 -174 164 -174 5 0 27 -16 49 -35 21 -19 46 -35 54 -35 9 0
24 -6 35 -14 11 -7 45 -19 75 -25 67 -14 310 -29 303 -19 -2 5 6 8 19 8 13 0
41 12 63 25 22 14 50 25 61 25 12 0 27 7 34 15 7 8 18 15 25 15 7 0 18 6 24
14 7 8 24 17 38 21 28 7 101 75 144 135 31 42 91 161 107 211 7 19 12 52 12
72 0 20 5 37 10 37 12 0 14 147 1 154 -4 3 -11 26 -13 50 -5 42 -74 207 -90
214 -5 2 -8 9 -8 15 0 17 -89 111 -132 141 -38 25 -110 67 -160 93 -32 16
-238 43 -323 42 -33 0 -89 -10 -125 -21z m267 -59 c43 -7 87 -18 98 -25 11 -8
27 -14 36 -14 18 0 93 -38 142 -72 87 -62 179 -198 208 -308 18 -70 15 -224
-6 -303 -10 -37 -21 -67 -26 -67 -4 0 -12 -13 -17 -30 -17 -48 -137 -190 -160
-190 -5 0 -17 -8 -28 -17 -22 -21 -64 -41 -148 -74 -85 -32 -268 -32 -338 -1
-26 12 -56 22 -67 22 -11 0 -40 16 -65 35 -26 19 -49 35 -52 35 -12 0 -112
110 -135 148 -13 20 -26 39 -30 42 -4 3 -13 25 -20 50 -7 25 -16 49 -21 55 -4
5 -8 70 -8 145 0 114 4 145 23 202 13 37 31 76 40 86 9 10 17 24 17 30 0 13
121 142 134 142 4 0 21 11 38 25 16 14 38 25 48 25 10 0 22 5 25 10 3 6 15 10
27 10 11 0 32 7 46 15 15 8 54 19 87 24 33 5 63 9 67 10 4 0 42 -4 85 -10z"/>
<path d="M3950 5595 c-14 -7 -56 -28 -95 -46 -96 -46 -180 -135 -236 -248
l-43 -85 0 -131 c-1 -121 1 -133 22 -159 12 -16 22 -34 22 -40 0 -18 24 -66
33 -66 4 0 7 -6 7 -13 0 -14 99 -120 140 -149 13 -10 30 -18 37 -18 7 0 21 -7
32 -16 66 -57 282 -74 403 -33 35 12 67 28 71 35 4 8 17 14 28 14 11 0 37 18
59 40 22 22 43 40 47 40 5 0 17 12 28 26 10 14 27 35 37 46 10 12 21 32 24 45
4 13 10 23 14 23 4 0 10 10 13 23 3 12 12 47 21 78 32 118 20 253 -34 359 -42
83 -131 180 -193 210 -18 8 -43 23 -57 32 -58 38 -323 62 -380 33z m232 -41
c15 -8 37 -14 49 -14 50 0 96 -23 187 -95 49 -38 111 -122 142 -193 15 -35 29
-165 19 -184 -5 -9 -9 -41 -9 -70 0 -29 -7 -64 -15 -78 -7 -14 -23 -43 -34
-65 -21 -44 -102 -135 -119 -135 -6 0 -17 -6 -24 -13 -116 -112 -424 -114
-546 -4 -10 10 -22 17 -27 17 -14 0 -81 73 -99 108 -9 18 -21 32 -26 32 -5 0
-16 26 -26 58 -9 31 -20 67 -25 80 -15 39 -10 157 10 220 25 82 65 144 135
212 70 69 111 91 231 123 92 25 129 25 177 1z"/>
<path d="M4015 5515 c-5 -2 -29 -9 -52 -15 -23 -6 -48 -16 -55 -23 -7 -6 -29
-21 -48 -31 -109 -60 -200 -230 -199 -370 1 -65 9 -91 50 -168 5 -10 9 -25 9
-33 0 -8 5 -15 10 -15 6 0 10 -5 10 -11 0 -18 120 -129 139 -129 6 0 25 -8 43
-19 47 -25 91 -34 183 -34 93 0 138 9 180 34 16 11 36 19 42 19 12 0 29 12 78
57 34 31 80 96 104 148 20 42 24 66 24 156 0 58 -6 124 -13 145 -14 44 -83
145 -126 186 -39 35 -118 77 -179 94 -45 12 -175 18 -200 9z"/>
<path d="M3855 7030 c-27 -4 -63 -13 -78 -21 -24 -11 -28 -18 -25 -48 l3 -36
98 0 99 0 29 -33 29 -32 0 -325 0 -325 128 0 127 1 -30 26 -30 26 -3 281 c-2
155 0 295 3 313 9 52 45 68 150 68 l90 0 3 33 c5 46 -14 59 -102 71 -86 12
-413 13 -491 1z"/>
<path d="M4762 6900 c-34 -32 -28 -59 16 -76 20 -8 45 -19 54 -24 29 -16 54
-11 67 14 25 45 12 67 -54 87 -33 10 -60 19 -61 19 0 0 -10 -9 -22 -20z"/>
<path d="M2203 6733 c-4 -10 -24 -34 -45 -53 -21 -20 -38 -39 -38 -44 0 -7
-12 -22 -62 -77 -10 -10 -18 -25 -18 -33 0 -8 -3 -16 -7 -18 -10 -4 -64 -76
-79 -103 -22 -41 -40 -71 -56 -94 -10 -13 -18 -31 -18 -41 0 -9 -9 -25 -20
-35 -11 -10 -20 -23 -20 -30 0 -7 -9 -22 -20 -35 -11 -13 -20 -32 -20 -44 0
-12 -9 -32 -20 -46 -11 -14 -20 -30 -20 -35 0 -6 -9 -28 -20 -50 -11 -22 -20
-51 -20 -66 0 -15 -6 -34 -12 -41 -7 -7 -21 -40 -31 -73 -11 -33 -23 -68 -28
-77 -5 -10 -9 -32 -9 -50 0 -18 -9 -62 -20 -96 -11 -35 -20 -83 -20 -105 0
-23 -7 -78 -16 -122 -8 -45 -14 -119 -13 -170 2 -50 0 -96 -4 -101 -3 -6 -3
-66 2 -133 11 -149 18 -161 86 -143 25 7 62 12 83 12 20 0 67 7 103 16 l67 16
0 67 c0 36 -6 90 -14 119 -8 29 -12 58 -8 64 4 7 11 53 15 102 14 169 29 278
44 306 8 16 15 44 15 63 0 33 39 156 66 208 8 16 14 38 14 51 0 13 19 61 42
108 23 47 50 101 59 120 46 93 72 138 104 177 19 23 35 46 35 52 0 9 24 40 63
82 9 10 17 23 17 28 0 4 18 26 40 47 22 22 40 43 40 48 0 5 7 17 16 27 14 16
14 20 -7 48 -12 17 -31 33 -41 37 -9 3 -25 18 -35 35 -9 16 -23 29 -29 29 -7
0 -26 16 -43 35 -35 40 -86 49 -98 18z"/>
<path d="M5932 6726 c-11 -14 -25 -26 -31 -26 -6 0 -16 -9 -23 -20 -7 -11 -18
-20 -25 -20 -7 0 -13 -7 -13 -15 0 -8 -5 -15 -10 -15 -18 0 -80 -68 -80 -88 0
-10 9 -27 20 -37 11 -10 20 -21 20 -25 0 -4 18 -26 40 -50 22 -24 40 -47 40
-51 0 -4 13 -22 30 -40 16 -18 36 -47 44 -64 8 -16 24 -40 35 -52 12 -12 21
-29 21 -37 0 -7 7 -16 15 -20 8 -3 15 -16 15 -29 0 -14 7 -30 15 -37 8 -7 15
-18 15 -24 0 -7 11 -27 25 -46 14 -19 25 -44 25 -57 0 -13 5 -23 10 -23 6 0
10 -4 10 -9 0 -5 14 -39 30 -74 17 -36 30 -77 30 -91 0 -14 7 -29 16 -34 10
-6 18 -31 24 -73 4 -35 15 -81 24 -103 9 -21 16 -58 16 -81 0 -24 9 -96 20
-160 21 -122 27 -332 11 -411 -12 -63 1 -74 106 -84 48 -5 104 -13 123 -18 85
-20 90 -7 97 261 5 189 3 230 -11 279 -9 31 -20 107 -26 170 -9 106 -35 225
-64 293 -8 17 -16 50 -20 74 -4 24 -13 53 -21 64 -8 12 -15 29 -15 38 0 9 -9
26 -20 39 -11 13 -20 32 -20 42 0 10 -6 21 -14 24 -8 3 -17 17 -21 31 -3 15
-15 38 -26 51 -10 14 -19 31 -19 38 0 14 -40 79 -65 105 -8 9 -15 21 -15 28 0
7 -17 34 -38 60 -21 25 -44 58 -51 74 -8 15 -18 27 -23 27 -4 0 -8 7 -8 15 0
8 -9 19 -20 25 -11 6 -20 19 -20 30 0 10 -6 23 -14 27 -19 11 -96 108 -96 122
0 6 -4 11 -9 11 -5 0 -16 3 -24 6 -9 3 -23 -5 -35 -20z"/>
<path d="M3383 6733 c-15 -6 -18 -53 -3 -53 6 0 10 -7 10 -15 0 -37 190 -390
233 -432 l26 -26 53 16 c29 9 74 21 100 27 70 15 128 40 128 56 0 8 -9 14 -20
14 -22 0 -126 45 -134 59 -3 5 -17 12 -31 15 -26 7 -185 122 -185 134 0 4 -18
27 -40 52 -22 25 -40 49 -40 55 0 16 -64 105 -75 104 -5 0 -16 -3 -22 -6z"/>
<path d="M4803 6703 c-11 -16 -27 -41 -36 -58 -9 -16 -34 -50 -56 -74 -23 -24
-41 -46 -41 -50 -1 -25 -209 -161 -248 -161 -7 0 -12 -4 -12 -8 0 -10 -60 -30
-100 -34 -66 -7 5 -55 107 -71 22 -4 63 -14 91 -23 49 -16 53 -16 72 1 11 10
26 30 34 44 7 14 24 46 37 71 13 25 27 47 32 48 4 2 7 9 7 16 0 7 13 30 30 52
16 21 30 44 30 50 0 5 13 31 29 56 40 63 69 144 55 158 -7 7 -17 2 -31 -17z"/>
<path d="M2574 6327 c-26 -14 -54 -44 -54 -58 0 -6 -10 -19 -23 -29 -12 -10
-32 -37 -44 -61 -12 -24 -30 -53 -40 -65 -22 -25 -41 -54 -49 -74 -3 -8 -12
-28 -21 -45 -9 -16 -26 -50 -38 -75 -76 -155 -80 -170 -40 -188 14 -7 32 -12
40 -12 20 0 55 49 55 77 0 14 9 38 21 54 19 27 26 29 81 29 45 0 66 -5 85 -20
14 -11 31 -20 38 -20 7 0 18 -6 24 -14 7 -8 26 -18 42 -21 16 -4 29 -10 29
-14 0 -4 33 -25 73 -46 39 -21 74 -41 77 -44 9 -10 44 -30 83 -47 20 -9 37
-20 37 -24 0 -5 9 -11 20 -15 10 -3 29 -22 40 -41 12 -18 26 -34 31 -34 6 0
19 19 29 43 10 23 33 62 49 85 17 23 31 46 31 51 0 5 7 14 15 21 30 25 17 37
-35 32 -40 -4 -51 -1 -56 12 -3 9 -14 16 -24 16 -9 0 -28 8 -41 18 -29 21 -54
35 -139 79 -36 19 -69 38 -74 44 -6 5 -18 9 -28 9 -10 0 -18 4 -18 8 0 5 -16
16 -35 25 -19 9 -35 21 -35 26 0 6 -17 15 -37 21 -38 10 -83 62 -83 94 0 17
50 116 59 116 12 0 43 62 35 69 -24 20 -61 28 -80 18z"/>
<path d="M5577 6327 c-24 -10 -27 -15 -21 -40 3 -16 22 -44 41 -62 31 -30 34
-37 34 -90 0 -46 -4 -62 -22 -81 -12 -13 -30 -24 -38 -24 -9 0 -27 -9 -41 -20
-14 -11 -30 -20 -36 -20 -6 0 -19 -9 -29 -20 -10 -11 -26 -20 -35 -20 -10 0
-23 -6 -29 -14 -14 -16 -86 -56 -102 -56 -11 0 -93 -52 -97 -62 -2 -5 -10 -8
-17 -8 -8 0 -30 -10 -50 -21 -25 -15 -46 -20 -70 -16 -46 8 -49 0 -15 -40 17
-18 30 -43 30 -53 0 -11 5 -20 10 -20 6 0 18 -17 28 -37 9 -21 20 -40 23 -43
3 -3 8 -13 12 -22 7 -21 27 -24 27 -5 1 16 35 57 48 57 6 0 12 4 14 9 2 4 32
24 68 43 36 18 76 41 90 50 41 26 112 67 155 89 22 11 60 33 85 49 61 38 145
42 178 7 12 -13 22 -28 22 -34 0 -6 7 -24 15 -39 8 -16 15 -41 15 -56 0 -26 3
-28 39 -28 37 0 39 2 45 36 4 20 4 50 1 67 -9 43 -56 140 -72 150 -7 4 -13 18
-13 31 0 13 -7 29 -15 36 -8 7 -15 18 -15 25 0 7 -11 24 -25 39 -14 15 -25 31
-25 37 0 14 -51 89 -61 89 -4 0 -15 15 -24 33 -19 39 -44 68 -73 85 -12 6 -23
12 -24 11 -2 -1 -16 -6 -31 -12z"/>
<path d="M2715 6263 c-19 -45 -13 -64 30 -97 26 -20 51 -28 100 -33 62 -6 65
-5 65 16 0 11 -5 21 -11 21 -6 0 -28 17 -49 38 -63 61 -100 92 -110 92 -5 0
-17 -16 -25 -37z"/>
<path d="M5435 6271 c-3 -11 -14 -21 -23 -23 -15 -3 -17 -18 -17 -115 l0 -111
30 5 c17 3 37 12 46 19 8 8 19 14 24 14 18 0 75 52 75 69 0 22 -56 107 -75
115 -8 3 -15 15 -15 26 0 26 -36 27 -45 1z"/>
<path d="M2360 6189 c0 -6 -13 -22 -30 -35 -16 -14 -38 -39 -47 -55 -13 -22
-28 -31 -55 -35 -41 -7 -58 -23 -78 -71 -10 -28 -10 -38 4 -67 9 -19 16 -39
16 -44 0 -18 20 -24 33 -10 6 7 23 37 36 66 14 28 28 52 33 52 4 0 8 7 8 16 0
16 25 66 46 94 14 18 54 89 54 95 0 3 -4 5 -10 5 -5 0 -10 -5 -10 -11z"/>
<path d="M5848 6167 c12 -21 22 -44 22 -52 0 -7 3 -15 8 -17 12 -5 72 -103 72
-118 0 -19 63 -140 73 -140 4 0 7 13 7 28 0 16 9 37 20 47 26 23 25 35 -5 95
-20 40 -30 50 -51 50 -18 0 -45 20 -96 73 -60 60 -68 66 -50 34z"/>
<path d="M2636 6154 c-11 -27 -6 -54 8 -54 8 0 22 -7 31 -16 19 -20 84 -54
101 -54 7 0 14 -3 16 -7 5 -12 97 -73 109 -73 6 0 23 -8 37 -17 84 -55 168
-95 194 -91 35 5 37 60 4 93 -13 13 -37 40 -52 60 -14 19 -31 35 -36 35 -5 0
-22 14 -38 32 l-30 32 -108 1 c-72 0 -112 4 -122 13 -78 67 -102 77 -114 46z"/>
<path d="M5285 6138 c-16 -16 -48 -47 -70 -69 -22 -21 -46 -39 -53 -39 -6 0
-12 -3 -12 -7 0 -5 -16 -25 -36 -47 -19 -21 -33 -45 -30 -52 7 -17 131 -20
142 -3 3 6 22 18 41 25 23 10 39 26 49 49 8 19 18 35 23 35 13 0 24 74 16 110
-8 38 -30 38 -70 -2z"/>
<path d="M3920 6140 c-43 -6 -130 -32 -148 -45 -6 -5 11 -35 21 -35 6 0 18 -7
28 -16 19 -17 48 -18 482 -17 52 0 123 27 132 51 3 8 4 16 3 17 -2 1 -27 12
-56 24 -47 20 -74 23 -230 26 -97 1 -202 -1 -232 -5z"/>
<path d="M2440 5802 c0 -16 14 -28 53 -46 28 -14 68 -40 87 -59 19 -18 50 -43
68 -56 17 -12 32 -26 32 -31 0 -5 14 -24 31 -42 17 -18 37 -46 45 -63 16 -33
36 -67 45 -75 11 -10 39 -79 39 -97 0 -10 9 -29 20 -43 19 -23 21 -24 34 -7 7
9 17 45 20 79 4 33 13 70 21 82 21 34 27 90 12 110 -7 10 -38 31 -68 47 -30
15 -70 36 -89 46 -19 10 -37 21 -40 24 -3 3 -20 14 -37 23 -18 9 -33 21 -33
26 0 6 -7 10 -16 10 -8 0 -47 18 -85 41 -39 22 -85 43 -104 46 -31 5 -35 3
-35 -15z"/>
<path d="M5673 5798 c-24 -11 -43 -24 -43 -29 0 -5 -7 -9 -15 -9 -8 0 -15 -4
-15 -8 0 -4 -12 -13 -27 -19 -16 -7 -46 -23 -68 -37 -22 -14 -51 -30 -65 -36
-14 -5 -32 -14 -40 -20 -8 -5 -40 -23 -70 -39 -82 -43 -95 -61 -80 -108 7 -21
16 -42 21 -48 5 -5 9 -17 9 -27 0 -9 6 -37 14 -60 8 -24 17 -55 20 -70 4 -16
13 -28 21 -28 14 0 44 55 60 110 4 14 23 48 41 77 19 28 34 55 34 59 0 5 43
50 96 102 73 71 113 101 160 123 67 29 76 45 46 72 -24 22 -47 21 -99 -5z"/>
<path d="M2132 5740 c-6 -11 -12 -38 -12 -60 0 -22 -10 -74 -22 -115 -12 -41
-19 -78 -15 -81 4 -4 17 -2 30 4 32 15 113 23 140 13 12 -5 31 -25 42 -45 17
-31 18 -41 7 -81 -7 -25 -12 -58 -12 -74 0 -53 12 -56 264 -59 133 -1 237 2
245 7 13 8 13 15 1 53 -26 81 -95 218 -111 218 -5 0 -9 8 -9 19 0 10 -17 31
-37 47 -21 15 -44 36 -51 46 -7 10 -18 18 -24 18 -6 0 -27 14 -47 30 -20 17
-42 36 -49 41 -8 6 -28 12 -45 13 -23 1 -32 -4 -36 -19 -27 -96 -151 -92 -212
6 -13 21 -26 39 -29 39 -3 0 -11 -9 -18 -20z"/>
<path d="M3207 5687 c-15 -18 -39 -55 -52 -84 -14 -28 -30 -55 -35 -58 -6 -3
-10 -15 -10 -25 0 -10 -5 -20 -10 -22 -6 -2 -17 -28 -25 -58 -7 -30 -21 -75
-29 -98 -9 -24 -19 -93 -23 -154 l-6 -110 24 7 c13 4 26 12 27 17 5 11 28 34
54 52 15 11 27 42 45 123 13 59 33 123 44 141 10 18 19 41 19 51 0 9 7 26 15
37 19 25 21 173 3 196 -12 14 -16 12 -41 -15z"/>
<path d="M5975 5669 c-67 -33 -104 -33 -142 3 -31 29 -87 20 -148 -23 -25 -19
-60 -44 -76 -56 -17 -12 -43 -39 -58 -60 -16 -21 -37 -47 -47 -58 -11 -11 -39
-60 -63 -109 -34 -68 -42 -92 -34 -105 9 -14 40 -16 236 -19 222 -2 226 -2
252 20 l26 23 -12 72 c-15 86 -4 118 49 140 40 17 118 8 145 -16 18 -15 19
-14 13 19 -3 19 -8 57 -11 84 -10 73 -32 117 -60 115 -5 0 -37 -14 -70 -30z"/>
<path d="M4946 5668 c-18 -26 -22 -123 -5 -134 17 -10 59 -106 59 -134 0 -14
6 -35 14 -46 8 -11 24 -58 35 -104 18 -72 27 -90 61 -122 51 -49 66 -49 75 2
6 38 2 65 -40 257 -16 71 -88 225 -127 272 -31 37 -51 39 -72 9z"/>
<path d="M2164 5433 c-36 -7 -44 -69 -44 -322 l0 -231 36 0 c39 0 50 8 79 57
35 60 52 63 373 63 160 0 302 4 315 9 24 9 45 63 27 69 -5 2 -6 38 -3 80 l6
76 -28 -22 c-27 -22 -34 -22 -335 -22 l-307 0 -26 25 c-32 32 -37 63 -26 143
5 36 8 66 7 68 -7 6 -55 11 -74 7z"/>
<path d="M5987 5433 c-17 -4 -18 -12 -12 -95 l7 -90 -31 -29 c-37 -33 -6 -31
-386 -29 -232 1 -252 2 -277 20 -15 11 -32 20 -38 20 -15 0 -12 -68 4 -115 9
-25 11 -44 5 -50 -17 -18 -9 -45 17 -55 14 -6 150 -10 311 -10 293 0 355 -7
367 -39 16 -42 40 -73 62 -82 37 -13 51 -11 59 9 15 39 24 243 14 319 -5 43
-13 108 -18 145 -4 37 -9 69 -12 72 -8 8 -54 14 -72 9z"/>
<path d="M6154 5108 c0 -131 4 -238 8 -238 12 0 28 46 28 79 0 16 9 40 20 54
26 33 29 143 4 162 -9 6 -20 34 -24 61 -5 27 -15 65 -23 84 -13 32 -14 14 -13
-202z"/>
<path d="M2040 5300 c0 -44 -46 -129 -76 -140 -20 -8 -23 -14 -18 -36 4 -15 8
-43 9 -63 3 -51 3 -51 24 -51 14 0 23 -11 32 -37 6 -21 15 -42 19 -48 4 -5 9
-19 11 -29 2 -11 5 83 5 207 1 125 0 227 -2 227 -2 0 -4 -14 -4 -30z"/>
<path d="M1643 4779 c-22 -6 -44 -16 -47 -25 -3 -8 -1 -38 5 -67 6 -28 12 -69
14 -90 2 -20 9 -46 15 -56 5 -11 10 -35 10 -53 0 -33 20 -101 33 -114 4 -4 7
-17 7 -28 0 -12 9 -36 20 -54 11 -18 20 -41 20 -50 0 -10 9 -38 21 -63 24 -51
52 -113 69 -149 46 -102 65 -119 113 -99 18 7 36 19 40 26 4 7 14 13 22 13 8
0 30 10 50 21 26 16 34 26 29 38 -4 9 -13 33 -21 55 -7 21 -20 45 -28 53 -8 8
-15 21 -15 30 0 8 -9 26 -20 40 -11 14 -20 34 -20 45 0 11 -5 29 -12 41 -23
42 -59 153 -68 208 -5 31 -14 69 -21 85 -6 16 -15 57 -20 90 -5 34 -13 73 -19
88 -9 24 -13 26 -72 25 -35 -1 -82 -5 -105 -10z"/>
<path d="M6385 4763 c-4 -16 -11 -36 -16 -46 -6 -10 -13 -42 -15 -70 -10 -96
-33 -194 -59 -248 -14 -30 -25 -64 -25 -76 0 -12 -18 -57 -40 -100 -22 -43
-40 -84 -40 -91 0 -8 -9 -27 -20 -42 -11 -16 -23 -42 -26 -58 -6 -27 -2 -33
32 -51 22 -12 53 -30 69 -40 59 -35 105 -35 105 -1 0 11 3 21 8 24 16 10 112
218 112 244 0 9 9 32 20 50 11 18 20 43 20 55 0 13 5 28 11 34 5 5 16 34 24
64 7 30 20 72 28 94 12 33 23 181 18 246 -1 12 -21 19 -78 27 -114 18 -122 17
-128 -15z"/>
<path d="M3230 4472 c0 -42 157 -199 260 -260 25 -14 50 -31 56 -37 9 -8 63
-34 124 -60 8 -3 26 -12 40 -20 14 -8 37 -15 52 -15 22 0 25 3 21 23 -3 12
-11 29 -17 37 -6 8 -19 31 -29 50 -19 36 -70 75 -112 86 -13 3 -41 21 -63 40
-22 19 -44 34 -48 34 -4 0 -26 19 -49 43 -50 52 -121 89 -186 95 -44 4 -49 3
-49 -16z"/>
<path d="M2990 4449 c-47 -16 -97 -38 -112 -49 -15 -11 -31 -20 -36 -20 -5 0
-15 -7 -22 -15 -7 -8 -23 -15 -36 -15 -13 0 -24 -4 -24 -8 0 -5 -17 -17 -37
-28 -21 -10 -40 -22 -43 -25 -3 -3 -21 -11 -42 -18 -20 -7 -39 -18 -42 -26 -3
-8 -11 -15 -18 -15 -18 0 -138 -61 -138 -70 0 -4 -11 -11 -25 -14 -19 -5 -25
-13 -25 -34 0 -17 10 -38 25 -52 14 -13 25 -30 25 -37 0 -15 31 -60 72 -105
15 -16 30 -37 33 -48 8 -24 50 -34 83 -18 35 17 38 40 10 70 -66 68 -84 114
-67 163 10 26 24 41 59 57 25 12 50 27 55 34 6 7 39 27 75 45 36 18 67 35 70
39 3 4 14 10 26 14 11 3 43 21 70 38 27 18 67 41 89 53 22 11 52 28 67 39 21
13 37 17 63 12 l35 -7 -21 36 c-27 44 -53 45 -169 4z"/>
<path d="M4795 4438 c-11 -6 -37 -29 -59 -50 -21 -21 -43 -38 -49 -38 -5 0
-17 -8 -26 -18 -21 -23 -84 -62 -102 -62 -24 0 -93 -73 -122 -127 -32 -63 -32
-63 -6 -63 31 0 239 87 239 100 0 3 15 14 33 23 43 21 77 49 156 129 84 84 93
96 86 108 -8 14 -125 12 -150 -2z"/>
<path d="M5042 4429 c-13 -21 -13 -21 23 -15 31 6 44 2 90 -28 29 -20 58 -36
65 -36 6 0 21 -9 33 -21 12 -11 50 -34 85 -50 34 -16 62 -34 62 -39 0 -6 5
-10 12 -10 17 0 100 -42 121 -61 10 -9 36 -24 57 -34 32 -14 39 -23 42 -49 5
-51 -8 -102 -31 -127 -57 -59 -63 -101 -18 -113 44 -12 43 -12 100 53 15 17
27 34 27 38 0 4 11 18 24 32 25 27 86 134 86 151 0 6 -7 10 -15 10 -8 0 -15 3
-15 8 0 4 -18 16 -40 26 -22 11 -40 23 -40 27 0 4 -13 10 -30 14 -16 4 -46 18
-66 31 -20 14 -57 35 -83 46 -25 12 -60 32 -77 45 -17 13 -38 23 -47 23 -10 0
-17 4 -17 9 0 5 -10 13 -22 16 -13 4 -32 15 -43 25 -30 27 -124 50 -202 50
-59 0 -70 -3 -81 -21z"/>
<path d="M5055 4326 c-10 -14 -22 -26 -29 -26 -6 0 -22 -16 -36 -34 -14 -19
-37 -42 -52 -51 -16 -9 -28 -19 -28 -23 0 -4 -11 -20 -25 -35 l-24 -29 36 -70
c19 -38 50 -93 69 -121 19 -28 34 -57 34 -63 0 -6 7 -18 17 -25 9 -8 22 -27
30 -44 48 -101 106 -176 123 -159 8 8 0 28 -30 76 -66 106 -66 170 1 277 34
53 122 101 186 101 59 0 147 -35 177 -71 31 -36 52 -37 60 -3 10 40 -15 67
-93 104 -39 19 -71 37 -71 41 0 4 -30 23 -67 42 -136 69 -178 92 -197 110 -11
9 -23 17 -27 17 -4 0 -14 3 -22 6 -10 3 -22 -4 -32 -20z"/>
<path d="M2966 4247 c-57 -32 -82 -57 -100 -101 -30 -72 -14 -148 42 -204 78
-77 199 -78 285 -2 40 36 41 39 45 108 6 104 -8 136 -81 183 -72 47 -129 52
-191 16z"/>
<path d="M3404 4157 c6 -32 -7 -95 -21 -106 -12 -9 -63 -89 -63 -99 0 -4 -11
-24 -25 -43 -15 -19 -36 -54 -48 -79 -12 -25 -32 -58 -44 -73 -13 -16 -23 -35
-23 -43 0 -8 -4 -14 -9 -14 -5 0 -13 -15 -17 -32 -3 -18 -16 -40 -28 -48 -33
-24 -67 -40 -83 -40 -22 0 -108 45 -132 69 -30 30 -56 27 -71 -9 -16 -38 -2
-76 33 -89 12 -5 38 -23 56 -40 18 -17 37 -31 42 -31 8 0 72 -40 96 -60 7 -5
17 -10 22 -10 6 0 38 -18 72 -40 34 -22 68 -40 75 -40 7 0 47 -16 88 -35 89
-41 109 -43 130 -13 32 45 26 51 -94 107 -58 27 -82 67 -69 115 5 20 14 38 19
41 6 4 10 13 10 22 0 9 11 31 25 49 14 18 39 59 56 91 17 32 37 63 43 68 14
12 56 96 56 112 0 6 7 13 15 16 8 4 21 23 30 43 17 42 42 66 86 85 l31 12 -48
25 c-27 13 -56 30 -64 37 -8 7 -26 16 -40 20 -14 4 -27 11 -30 14 -8 11 -67
51 -75 51 -4 0 -4 -15 -1 -33z"/>
<path d="M4767 4173 c-17 -17 -59 -43 -159 -98 -47 -25 -62 -45 -35 -45 8 0
24 -9 37 -20 13 -11 27 -20 32 -20 4 0 8 -6 8 -12 0 -7 23 -51 50 -97 28 -46
50 -85 50 -87 0 -2 18 -31 40 -65 21 -33 42 -71 46 -82 6 -19 19 -38 63 -93
15 -18 22 -76 13 -107 -7 -28 -38 -49 -134 -90 -42 -18 -48 -39 -22 -75 17
-25 58 -29 83 -9 9 7 43 23 76 36 84 32 149 64 157 77 4 7 20 15 35 19 16 3
36 14 46 22 18 17 47 35 82 52 11 5 35 23 53 40 18 17 37 31 42 31 5 0 18 13
29 29 19 27 20 31 5 60 -8 17 -20 31 -25 31 -5 0 -34 -16 -65 -36 -78 -50
-101 -56 -148 -40 -30 10 -45 24 -62 56 -12 23 -29 49 -37 58 -8 9 -29 45 -46
79 -17 34 -35 64 -40 67 -4 3 -23 35 -41 70 -17 35 -38 67 -46 70 -8 3 -14 12
-14 21 0 8 -9 32 -20 53 -16 28 -19 47 -14 80 7 47 -8 56 -39 25z"/>
<path d="M2775 4151 c-17 -9 -42 -21 -57 -24 -15 -4 -32 -16 -38 -27 -6 -11
-17 -20 -25 -20 -8 0 -17 -11 -21 -25 -5 -19 3 -35 35 -73 22 -26 44 -62 47
-80 8 -41 -2 -82 -21 -82 -8 0 -15 -4 -15 -10 0 -16 -57 -40 -95 -40 -19 0
-35 -5 -35 -10 0 -10 80 -115 104 -135 31 -28 56 -77 56 -112 0 -30 7 -45 34
-70 31 -31 38 -33 100 -33 51 0 76 -5 106 -22 21 -13 41 -20 45 -17 11 12 -7
39 -26 39 -10 0 -27 8 -37 18 -10 9 -37 29 -60 45 -23 15 -42 32 -42 37 0 6
-6 10 -12 10 -23 1 -55 35 -60 65 -4 19 1 43 14 68 40 79 108 110 145 67 10
-11 23 -20 29 -20 6 0 28 -13 49 -30 47 -37 60 -37 82 -2 10 15 20 29 23 32
19 18 85 149 78 155 -2 3 -20 0 -39 -5 -46 -13 -139 -13 -180 2 -19 6 -50 26
-69 45 -19 18 -38 33 -42 33 -4 0 -8 6 -8 13 -1 6 -9 30 -20 52 -22 45 -26
106 -9 137 16 30 -2 40 -36 19z"/>
<path d="M5305 4050 c-70 -7 -137 -62 -155 -125 -17 -62 -6 -145 26 -182 13
-15 24 -31 24 -35 0 -15 70 -8 76 7 3 8 22 17 41 21 27 5 41 2 63 -15 45 -33
82 -28 104 14 11 19 23 35 28 35 17 0 7 46 -12 58 -23 14 -27 66 -8 107 11 24
9 29 -28 64 -46 45 -89 59 -159 51z"/>
<path d="M2143 3999 c-11 -4 -24 -12 -28 -18 -3 -6 -16 -11 -29 -11 -13 0 -31
-9 -41 -20 -10 -11 -33 -22 -51 -26 -19 -3 -34 -10 -34 -15 0 -5 -6 -9 -14 -9
-8 0 -21 -9 -29 -21 -14 -19 -12 -27 26 -92 22 -40 53 -86 69 -102 15 -17 28
-35 28 -39 0 -4 27 -38 60 -74 33 -37 60 -72 60 -79 0 -7 6 -13 14 -13 7 0 20
-10 29 -22 8 -13 30 -40 48 -60 19 -20 44 -50 57 -67 13 -17 30 -31 38 -31 8
0 14 -7 14 -15 0 -8 4 -15 10 -15 8 0 60 -42 140 -114 14 -13 40 -30 58 -40
17 -9 32 -20 32 -25 0 -5 25 -24 55 -42 30 -18 55 -37 55 -41 0 -4 9 -8 20 -8
11 0 20 -5 20 -10 0 -6 18 -17 40 -26 22 -9 40 -20 40 -24 0 -10 289 -152 355
-175 11 -4 45 -13 75 -21 30 -8 64 -21 75 -28 11 -7 34 -16 50 -19 17 -3 55
-11 85 -18 30 -6 70 -12 89 -13 30 -1 35 3 43 29 16 61 49 258 45 269 -3 7
-43 21 -89 31 -45 10 -92 24 -103 31 -11 8 -28 14 -37 14 -37 0 -338 127 -338
142 0 4 -10 8 -21 8 -12 0 -44 16 -70 35 -27 19 -51 35 -54 35 -9 0 -90 54
-93 63 -2 4 -11 7 -20 7 -10 0 -31 15 -48 34 -17 19 -42 40 -55 47 -44 23
-271 242 -282 272 -4 9 -10 17 -15 17 -5 0 -35 34 -67 75 -33 41 -63 75 -67
75 -4 0 -8 11 -8 25 0 14 -4 25 -10 25 -5 0 -24 22 -42 49 -34 53 -51 63 -85
50z"/>
<path d="M5988 3976 c-9 -13 -29 -45 -43 -72 -15 -27 -38 -59 -51 -71 -13 -12
-24 -29 -24 -37 0 -8 -6 -19 -13 -23 -7 -4 -33 -33 -59 -63 -75 -90 -144 -160
-157 -160 -6 0 -11 -4 -11 -9 0 -13 -45 -61 -56 -61 -5 0 -25 -16 -44 -35 -19
-19 -37 -35 -41 -35 -7 0 -40 -26 -78 -61 -10 -8 -25 -18 -34 -22 -9 -3 -17
-11 -17 -17 0 -5 -7 -10 -15 -10 -8 0 -24 -9 -35 -20 -11 -11 -29 -20 -39 -20
-11 0 -26 -8 -33 -18 -14 -19 -180 -105 -258 -133 -25 -9 -70 -27 -100 -39
-30 -12 -68 -25 -85 -28 -16 -3 -39 -11 -50 -17 -11 -7 -55 -20 -97 -29 -93
-21 -102 -29 -89 -88 5 -23 15 -79 21 -123 19 -130 16 -125 54 -125 42 0 233
48 261 65 11 8 37 17 58 20 20 4 40 11 43 16 3 5 13 9 23 9 10 0 54 18 97 40
43 22 84 40 90 40 6 0 17 7 24 15 7 8 30 20 51 27 22 6 39 15 39 20 0 4 7 8
17 8 9 0 31 11 49 25 18 14 35 25 39 25 6 0 87 51 95 61 3 3 12 8 20 12 23 11
52 30 79 55 14 12 31 22 37 22 6 0 26 16 45 35 19 19 38 35 42 35 5 0 23 16
40 35 17 19 35 35 41 35 6 0 22 16 35 35 13 19 28 35 34 35 12 0 57 47 57 60
0 5 8 14 18 19 9 5 40 39 67 75 28 36 56 65 63 66 6 0 12 7 12 17 0 9 18 31
40 50 22 19 40 43 40 54 0 11 7 22 15 25 8 3 17 15 21 27 3 11 15 30 25 41 11
11 19 28 19 38 0 10 4 18 9 18 5 0 12 7 15 16 9 23 -19 52 -74 75 -25 11 -52
24 -60 29 -41 25 -121 60 -137 60 -10 0 -26 -11 -35 -24z"/>
<path d="M3633 3963 c-7 -2 -13 -11 -13 -18 0 -8 -6 -18 -14 -22 -7 -4 -28
-37 -47 -73 -18 -36 -37 -66 -41 -68 -4 -2 -21 -32 -37 -66 -16 -34 -35 -69
-42 -77 -13 -13 -31 -44 -77 -132 -13 -26 -13 -31 2 -45 14 -15 17 -14 36 6
11 11 20 28 20 36 0 8 11 23 24 33 13 10 26 28 30 39 3 12 19 33 35 47 16 14
30 29 32 34 8 16 125 106 152 115 15 6 27 14 27 18 0 5 23 19 50 31 47 21 50
25 50 60 0 38 -11 49 -53 49 -12 0 -35 9 -52 20 -29 19 -57 24 -82 13z"/>
<path d="M4505 3957 c-11 -7 -45 -19 -75 -27 -53 -14 -55 -16 -58 -52 -3 -33
0 -38 37 -59 23 -12 41 -26 41 -31 0 -4 8 -8 18 -8 17 0 55 -25 94 -62 10 -10
22 -18 28 -18 5 0 13 -6 17 -14 4 -7 26 -34 48 -60 65 -74 84 -99 104 -136 14
-27 26 -36 50 -38 29 -3 31 -1 31 28 0 33 -33 114 -50 125 -6 3 -23 33 -40 66
-16 32 -40 74 -54 92 -15 19 -26 37 -26 41 0 3 -18 36 -40 72 -22 36 -40 70
-40 74 0 21 -55 25 -85 7z"/>
<path d="M3775 3772 c-11 -2 -40 -19 -64 -38 -24 -19 -49 -34 -54 -34 -19 0
-144 -136 -181 -198 -31 -51 -36 -65 -26 -77 7 -8 19 -15 27 -15 8 0 25 -12
38 -27 29 -33 33 -85 8 -111 -10 -10 -26 -32 -35 -48 -12 -21 -26 -30 -48 -32
-23 -3 -30 -7 -26 -19 3 -8 6 -17 6 -19 0 -2 11 -4 24 -4 13 0 29 -6 35 -14 7
-8 22 -17 34 -20 14 -3 27 -18 35 -39 11 -31 17 -35 59 -41 26 -3 51 -2 56 3
16 16 25 80 20 145 -5 58 -3 69 24 118 18 30 33 76 37 108 4 30 11 59 16 66 5
6 14 42 20 80 25 164 29 184 34 193 9 13 -16 28 -39 23z"/>
<path d="M4393 3733 c7 -46 24 -140 37 -208 5 -27 14 -79 20 -114 6 -41 17
-71 30 -83 35 -33 53 -85 45 -131 -13 -73 -5 -154 17 -168 5 -3 30 0 56 6 33
9 48 18 51 31 5 30 18 41 87 73 66 31 82 51 41 51 -30 0 -63 29 -88 75 -28 52
-25 92 11 127 32 30 40 71 16 85 -7 4 -21 22 -30 38 -50 91 -150 185 -254 239
-43 22 -45 21 -39 -21z"/>
<path d="M5544 3743 c-9 -16 -34 -44 -54 -63 -29 -27 -39 -46 -44 -82 -4 -27
-10 -48 -14 -48 -4 0 -24 -16 -44 -35 -20 -19 -41 -35 -47 -35 -5 0 -27 -16
-48 -35 -21 -19 -42 -35 -47 -35 -4 0 -22 -12 -40 -26 -29 -25 -29 -26 -6 -19
14 4 40 16 58 26 24 14 53 19 102 19 92 0 120 21 120 92 0 26 4 48 9 48 5 0
26 24 47 53 21 28 50 64 66 79 15 15 28 31 28 36 0 5 7 15 15 22 26 22 17 30
-34 30 -42 0 -51 -4 -67 -27z"/>
<path d="M4429 2845 c-2 -2 -170 -5 -372 -8 -254 -4 -372 -9 -381 -16 -8 -7
-16 -33 -19 -59 -3 -26 -9 -61 -12 -77 -6 -28 -3 -33 27 -48 50 -25 281 -37
533 -27 116 5 231 9 257 9 34 1 54 7 72 24 23 21 24 25 15 72 -6 28 -12 65
-14 83 -1 18 -5 36 -8 38 -6 6 -93 14 -98 9z"/>
<path d="M3350 1910 c-71 -13 -97 -31 -122 -84 -23 -50 -23 -56 -26 -444 -2
-318 0 -399 11 -425 8 -18 19 -44 25 -58 26 -64 177 -92 261 -48 59 30 81 85
81 199 l0 90 -40 0 -40 0 0 -76 c0 -61 -4 -82 -21 -105 -19 -27 -25 -29 -84
-29 -60 0 -65 2 -87 33 -23 32 -23 34 -26 394 -3 345 -2 365 17 407 17 36 26
45 55 50 19 4 52 4 75 0 58 -9 71 -39 71 -171 l0 -103 40 0 40 0 0 120 c0 102
-3 127 -22 166 -11 25 -28 48 -37 51 -9 4 -23 11 -31 18 -19 16 -94 24 -140
15z"/>
<path d="M5475 1911 c-57 -10 -92 -37 -123 -95 l-27 -51 0 -390 c0 -384 0
-391 22 -435 30 -60 42 -74 80 -93 43 -22 175 -24 197 -2 8 8 22 15 31 15 8 0
19 8 22 18 4 9 12 23 19 29 21 22 26 126 22 518 -3 378 -3 380 -26 418 -13 20
-29 37 -35 37 -6 0 -18 6 -26 14 -20 17 -103 26 -156 17z m114 -102 c20 -7 34
-20 39 -37 4 -15 7 -202 7 -415 l0 -389 -24 -19 c-16 -13 -39 -19 -75 -19 -73
0 -89 7 -108 46 -16 31 -18 72 -18 394 0 315 2 364 17 394 24 51 91 70 162 45z"/>
<path d="M6068 1913 c-20 -2 -42 -11 -48 -19 -7 -8 -18 -14 -25 -14 -20 0 -41
-41 -59 -115 -14 -58 -15 -80 -6 -130 6 -33 13 -73 17 -90 3 -16 10 -34 17
-40 18 -16 66 -83 66 -92 0 -5 8 -16 18 -25 9 -8 25 -26 35 -39 9 -13 37 -50
62 -81 25 -31 45 -60 45 -63 0 -4 10 -20 21 -37 17 -23 22 -46 23 -103 1 -98
-19 -129 -90 -133 -27 -2 -63 -1 -80 3 -28 5 -32 11 -43 58 -6 28 -12 84 -14
122 l-2 70 -40 0 -40 0 -3 -70 c-4 -80 21 -200 47 -230 9 -11 32 -28 50 -37
41 -23 154 -24 195 -3 15 8 35 15 42 15 8 0 14 5 14 10 0 6 10 25 23 41 20 28
22 42 22 147 0 104 -3 121 -22 153 -13 20 -23 42 -23 48 0 7 -10 22 -22 35
-33 34 -58 65 -58 73 0 6 -13 22 -57 67 -13 13 -23 28 -23 33 0 5 -17 29 -39
53 -56 62 -75 156 -49 240 15 48 55 66 122 56 36 -6 46 -13 64 -45 18 -31 22
-55 22 -125 l0 -86 40 0 40 0 0 104 c0 168 -43 235 -160 248 -25 3 -62 3 -82
1z"/>
<path d="M560 1845 l0 -45 75 0 75 0 0 -476 0 -475 38 3 37 3 3 473 2 472 75
0 75 0 0 45 0 45 -190 0 -190 0 0 -45z"/>
<path d="M1100 1370 l0 -520 175 0 175 0 0 45 0 45 -135 0 -135 0 0 195 0 194
108 3 107 3 2 48 2 47 -110 0 -109 0 0 185 0 185 130 0 130 0 0 45 0 45 -170
0 -170 0 0 -520z"/>
<path d="M1720 1858 c0 -32 -23 -160 -57 -318 -9 -41 -19 -111 -23 -155 -6
-77 -20 -156 -61 -352 -10 -50 -19 -112 -19 -137 l0 -46 40 0 c39 0 40 1 40
36 0 20 6 62 14 93 8 31 17 68 20 84 l6 27 109 0 108 0 11 -52 c6 -29 14 -75
17 -103 10 -72 19 -85 62 -85 l36 0 -7 38 c-3 20 -11 69 -16 107 -5 39 -16 96
-25 128 -8 32 -15 79 -15 105 0 44 -13 118 -61 352 -10 52 -19 115 -19 140 -1
25 -6 72 -13 105 l-13 60 -67 3 -67 3 0 -33z m99 -298 c33 -160 53 -273 58
-322 l5 -48 -89 0 c-49 0 -92 3 -96 6 -3 3 -1 18 4 32 5 13 13 66 18 116 5 50
16 127 24 171 9 44 21 109 27 145 15 83 24 97 27 40 2 -25 11 -88 22 -140z"/>
<path d="M2200 1370 l0 -521 38 3 37 3 5 385 c4 337 7 378 18 332 6 -30 12
-63 12 -75 0 -12 12 -60 25 -106 14 -47 25 -102 25 -123 0 -22 6 -67 14 -101
8 -34 18 -82 23 -107 8 -44 9 -45 49 -48 l41 -3 17 65 c9 36 16 81 16 101 0
36 6 68 51 250 12 50 25 124 29 165 5 41 10 77 12 80 1 3 5 -179 8 -405 l5
-410 40 0 40 0 3 518 2 517 -63 0 -64 0 -17 -82 c-10 -46 -24 -109 -32 -140
-8 -32 -14 -76 -14 -98 0 -22 -11 -82 -24 -133 -13 -50 -31 -121 -39 -157 -12
-52 -15 -58 -16 -30 0 19 -12 82 -25 140 -44 182 -56 244 -56 280 0 19 -11 76
-24 125 l-23 90 -57 3 -56 3 0 -521z"/>
<path d="M3780 1460 c0 -347 3 -440 15 -486 18 -69 38 -102 70 -114 12 -5 26
-14 30 -19 11 -20 152 -13 193 8 51 27 85 81 93 150 4 31 8 244 8 474 l1 417
-45 0 -45 0 0 -453 0 -453 -28 -27 c-24 -23 -37 -27 -86 -27 -72 0 -93 11
-106 58 -6 23 -10 201 -10 470 l0 432 -45 0 -45 0 0 -430z"/>
<path d="M4410 1371 l0 -521 40 0 40 0 0 185 0 185 48 0 47 0 23 -62 c13 -35
42 -115 64 -178 22 -63 45 -118 52 -122 6 -4 28 -8 49 -8 42 0 46 10 20 61 -9
18 -31 74 -49 124 -18 49 -41 114 -52 143 l-21 53 37 34 c54 48 62 87 62 291
0 197 -7 236 -55 291 l-32 37 -137 4 -136 4 0 -521z m240 407 c11 -12 20 -28
20 -35 0 -7 5 -13 10 -13 6 0 10 -62 10 -167 0 -150 -2 -171 -20 -201 -24 -40
-54 -52 -126 -52 l-54 0 0 245 0 245 70 0 c58 0 72 -3 90 -22z"/>
<path d="M4940 1845 c0 -43 1 -45 30 -45 l30 0 0 -430 0 -430 -31 0 c-29 0
-30 -1 -27 -42 l3 -43 100 0 100 0 3 43 3 42 -35 0 -36 0 0 429 0 430 33 3
c30 3 32 6 35 46 l3 42 -105 0 -106 0 0 -45z"/>
<path d="M6510 1845 c0 -41 2 -45 25 -45 l25 0 0 -430 0 -430 -25 0 c-23 0
-25 -4 -25 -45 l0 -46 98 3 97 3 0 40 c0 36 -3 40 -27 43 -14 2 -28 9 -30 15
-1 7 -2 200 0 429 l2 417 28 3 c24 3 27 8 30 46 l3 42 -100 0 -101 0 0 -45z"/>
<path d="M6830 1845 l0 -45 75 0 75 0 2 -472 3 -473 40 0 40 0 3 473 2 472 75
0 75 0 0 45 0 45 -195 0 -195 0 0 -45z"/>
<path d="M7297 1833 c7 -32 20 -78 28 -103 8 -25 15 -52 15 -60 1 -8 9 -33 20
-55 11 -22 19 -50 20 -62 0 -22 26 -113 57 -203 29 -86 33 -116 33 -307 l0
-193 40 0 40 0 0 185 c0 142 3 194 15 222 8 19 15 44 15 55 0 10 7 32 15 48 8
16 22 58 29 92 8 35 24 92 35 128 11 36 27 92 36 125 9 33 20 74 25 90 5 17
11 45 15 63 7 32 6 32 -33 32 -39 0 -41 -1 -55 -47 -9 -27 -18 -64 -22 -83 -3
-19 -15 -62 -25 -95 -44 -140 -50 -159 -50 -175 0 -30 -31 -121 -39 -115 -5 2
-11 19 -14 37 -8 49 -50 204 -89 328 -7 19 -16 60 -23 90 l-11 55 -45 3 -46 3
14 -58z"/>
</g>
</svg>
